<svg width="64" height="64" viewBox="0 0 64 64" fill="none" xmlns="http://www.w3.org/2000/svg">
<path d="M45.6584 64H10.7967C8.49766 64 6.63403 62.1363 6.63403 59.8373V29.1382C6.63403 26.8392 8.49766 24.9756 10.7967 24.9756H41.4958C43.7948 24.9756 45.6584 26.8392 45.6584 29.1382V64Z" fill="#1849D6"/>
<g opacity="0.2">
<path opacity="0.4" d="M41.4958 24.9756H36.2926C38.5916 24.9756 40.4552 26.8392 40.4552 29.1382V35.2252C40.4552 36.4153 39.7792 37.5033 38.7101 38.0261C33.4321 40.6071 29.7886 46.0323 29.7886 52.2926C29.7886 56.923 31.7822 61.0962 34.9558 64H45.6584V29.1382C45.6584 26.8392 43.7948 24.9756 41.4958 24.9756Z" fill="#E8EDFB"/>
</g>
<path d="M12.5081 13.6381V24.9756H17.9714V13.6381C17.9714 9.12337 21.6313 5.4635 26.1461 5.4635C30.6608 5.4635 34.3207 9.12337 34.3207 13.6381V24.9756H39.7841V13.6381C39.7842 6.106 33.6783 0 26.1462 0C18.6141 0 12.5081 6.106 12.5081 13.6381Z" fill="#E9E9E9"/>
<g opacity="0.3">
<path d="M12.5081 20.8135H17.9714V24.9761H12.5081V20.8135Z" fill="#A5A5A5"/>
</g>
<g opacity="0.3">
<path d="M34.3208 20.8135H39.7842V24.9761H34.3208V20.8135Z" fill="#A5A5A5"/>
</g>
<path d="M45.6583 63.9997C52.1241 63.9997 57.3657 58.7581 57.3657 52.2923C57.3657 45.8265 52.1241 40.585 45.6583 40.585C39.1925 40.585 33.9509 45.8265 33.9509 52.2923C33.9509 58.7581 39.1925 63.9997 45.6583 63.9997Z" fill="#FF7272"/>
<path opacity="0.2" d="M51.7758 42.3096C52.869 44.0899 53.4999 46.1847 53.4999 48.4271C53.4999 54.8928 48.2584 60.1344 41.7925 60.1344C39.5502 60.1344 37.4554 59.5036 35.675 58.4103C37.7343 61.7634 41.4349 64.0001 45.6583 64.0001C52.124 64.0001 57.3657 58.7586 57.3657 52.2927C57.3657 48.0693 55.1289 44.3687 51.7758 42.3096Z" fill="#FF3636"/>
<path d="M30.3089 40.0015C30.3089 37.7025 28.4453 35.8389 26.1463 35.8389C23.8473 35.8389 21.9836 37.7025 21.9836 40.0015C21.9836 41.542 22.8211 42.886 24.0649 43.6059V51.0555C24.0649 52.205 24.9968 53.1367 26.1461 53.1367C27.2956 53.1367 28.2274 52.2049 28.2274 51.0555V43.6059C29.4714 42.886 30.3089 41.542 30.3089 40.0015Z" fill="white"/>
<path d="M45.6586 56.9153C45.1407 56.9153 44.7211 56.4956 44.7211 55.9778V52.9416C44.7211 52.4238 45.1407 52.0041 45.6586 52.0041C46.547 52.0041 47.3737 51.6487 47.9864 51.0034C48.5986 50.3586 48.9105 49.5128 48.8641 48.6219C48.7776 46.9524 47.3987 45.6183 45.7252 45.5846C44.1032 45.5536 42.7035 46.7386 42.4794 48.3451C42.4589 48.4921 42.4485 48.6432 42.4485 48.7939C42.4485 49.3117 42.0289 49.7314 41.511 49.7314C40.9931 49.7314 40.5735 49.3117 40.5735 48.7939C40.5735 48.5568 40.59 48.3186 40.6225 48.0859C40.978 45.5392 43.1879 43.6607 45.7631 43.7099C48.4147 43.7633 50.5994 45.8783 50.7367 48.5248C50.8099 49.9342 50.316 51.2729 49.3461 52.2944C48.5954 53.0852 47.6415 53.6009 46.5961 53.7939V55.9779C46.5961 56.4956 46.1764 56.9153 45.6586 56.9153Z" fill="white"/>
<path d="M45.6587 60.876C46.1765 60.876 46.5962 60.4562 46.5962 59.9385C46.5962 59.4207 46.1765 59.001 45.6587 59.001C45.1409 59.001 44.7212 59.4207 44.7212 59.9385C44.7212 60.4562 45.1409 60.876 45.6587 60.876Z" fill="white"/>
</svg>
