<svg width="64" height="65" viewBox="0 0 64 65" fill="none" xmlns="http://www.w3.org/2000/svg">
<path d="M57.85 23.17L37.17 9.64C35.6485 8.59471 33.846 8.03516 32 8.03516C30.1541 8.03516 28.3515 8.59471 26.83 9.64L6.15002 23.17C5.16835 23.9183 4.37316 24.8837 3.82668 25.9905C3.28021 27.0973 2.99727 28.3156 3.00002 29.55V53.5C3 54.5548 3.20857 55.5992 3.61373 56.5731C4.01889 57.5469 4.61264 58.4311 5.36082 59.1746C6.10899 59.9181 6.99681 60.5064 7.9732 60.9054C8.94958 61.3045 9.99525 61.5066 11.05 61.5H53C55.1217 61.5 57.1566 60.6571 58.6569 59.1569C60.1572 57.6566 61 55.6217 61 53.5V29.55C61.0028 28.3156 60.7198 27.0973 60.1734 25.9905C59.6269 24.8837 58.8317 23.9183 57.85 23.17Z" fill="#FFA24D"/>
<path d="M52 61.5V5.5C52 4.96957 51.7893 4.46086 51.4142 4.08579C51.0391 3.71071 50.5304 3.5 50 3.5H14C13.4696 3.5 12.9609 3.71071 12.5858 4.08579C12.2107 4.46086 12 4.96957 12 5.5V61.5H52Z" fill="#E9E9E9"/>
<path d="M60.9998 29.5499V53.4999C60.9998 55.6217 60.157 57.6565 58.6567 59.1568C57.1564 60.6571 55.1216 61.4999 52.9998 61.4999H11.0498C8.92812 61.4999 6.89328 60.6571 5.39299 59.1568C3.8927 57.6565 3.04985 55.6217 3.04985 53.4999V29.5499C3.04571 28.2878 3.34404 27.0431 3.91985 25.9199L26.9198 46.3599C28.3647 47.5835 30.1966 48.2549 32.0898 48.2549C33.9831 48.2549 35.815 47.5835 37.2598 46.3599L60.2598 25.9199C60.7907 27.0542 61.0444 28.2984 60.9998 29.5499Z" fill="#FFBE82"/>
<path d="M59.0001 58.78C58.2504 59.6333 57.3276 60.3173 56.2931 60.7862C55.2585 61.2552 54.136 61.4985 53.0001 61.5H11.0501C9.98968 61.5009 8.93967 61.2909 7.96113 60.8823C6.98259 60.4737 6.09504 59.8747 5.3501 59.12L26.8801 40.12C28.2941 38.8728 30.1147 38.1846 32.0001 38.1846C33.8855 38.1846 35.7061 38.8728 37.1201 40.12L59.0001 58.78Z" fill="#FFA24D"/>
<path d="M30.88 21.8299L28.05 18.9999C27.4875 18.4381 26.725 18.1226 25.93 18.1226C25.135 18.1226 24.3725 18.4381 23.81 18.9999C23.2482 19.5624 22.9326 20.3249 22.9326 21.1199C22.9326 21.9149 23.2482 22.6774 23.81 23.2399L28.05 27.4999C28.4215 27.8718 28.8626 28.1669 29.3482 28.3682C29.8338 28.5695 30.3543 28.6731 30.88 28.6731C31.4056 28.6731 31.9261 28.5695 32.4117 28.3682C32.8973 28.1669 33.3385 27.8718 33.71 27.4999L42.19 19.0099C42.7518 18.4474 43.0673 17.6849 43.0673 16.8899C43.0673 16.0949 42.7518 15.3324 42.19 14.7699C41.6275 14.2081 40.865 13.8926 40.07 13.8926C39.275 13.8926 38.5125 14.2081 37.95 14.7699L30.88 21.8299Z" fill="#00CC83"/>
</svg>
